<?xml version="1.0" encoding="utf-8"?>
<svg viewBox="54.29998779296875 190.60003662109375 142.70001220703125 119.0999755859375" width="142.70001220703125" height="119.0999755859375" xmlns="http://www.w3.org/2000/svg"><g transform="matrix(1, 0, 0, 1, 0, 0)">
		<path class="st4" d="M54.3,286.9c1.7-3.9,7.1-6.8,12.5-5.3c1.1-0.5,2.3-1,3.4-1.5c4.5-1.6,9.8-1.1,13.7-3.4&#10;&#9;&#9;&#9;c1.6-0.9,4.1-3.2,3.9-5.8c-0.5-2-0.9-4-1.4-6c-0.8-4,1.7-8.7,3.1-11.3c1.9-3.6,7.8-9.7,8.2-13.7c-2.3-4.4-1.9-6.4,1.5-9.4&#10;&#9;&#9;&#9;c3.4-0.1,4.1,0.7,6,2.2c5.3-1.3,9.1-6.3,14-8.4c3.8-1.6,8.6-2.1,12-4.3c0.9-5.6-4-23.2-1.5-27.3c1.1-0.7,2.3-1.4,3.4-2.1&#10;&#9;&#9;&#9;c5.5,1.9,7.7,10.6,9.6,16c0.6,1.7,0.6,5.3,2.2,6v-0.2c-1.7-4.5,4.4-11.5,9.4-8.2c5.6,3.6,1.7,9.2,1.2,14c0.2,0.3,0.3,0.7,0.5,1&#10;&#9;&#9;&#9;c14.7,6.4,24.1,11.6,29.5,27.3c3.1-0.3,7-1.8,8.7-3.6c-0.2-1.1-0.3-2.2-0.5-3.2c0.5-0.5,0.9-1,1.4-1.5c0.5,0.1,1,0.2,1.5,0.3&#10;&#9;&#9;&#9;c0.4,1.7-0.1,4.7-0.9,6c-3.4,1.3-7.5,2.4-9,5.5c-0.1,0.4-0.2,11.1,0.2,12c0.5,1.1,2,2.4,3.2,2.9c1.2-1.2,2.8-2.3,4.8-2.7&#10;&#9;&#9;&#9;c-0.1,0.2-0.1,0.5-0.2,0.7c-3.1,1.2-5.9,5.5-6.8,8.9c-0.6,2.1,0.7,4.1,0.3,5.8c-0.3,0.3-0.6,0.7-0.9,1c-2.1-0.1-5.9-1.1-7,0&#10;&#9;&#9;&#9;c-1.9,2.4-3.8,4.9-5.6,7.3c-3,3.5-8.1,7.1-12,9.6c-7.6,4.8-19.4,1.3-28.7-0.2c-2-0.3-2.1,1.8-4.3,1.2c-1.2-0.4-1.6-1.6-3.1-1.9&#10;&#9;&#9;&#9;c-2.5,1.3-3.5,3.7-7,3.9c-0.3-0.2-0.6-0.3-0.9-0.5c-0.4-1.6,0.1-4-0.9-5.3c-1.2-1.6-4.1-1.3-6.1-2.1c-4.9-1.8-9.5-6.1-14.9-6.8&#10;&#9;&#9;&#9;c-0.7,0.7-1.4,1.1-2.4,1.5l-1.4-0.7c-0.3-0.7-0.6-1.5-0.8-2.2c-8.5-1.5-14,0.6-21.2,2.7c-1.6,0.3-3.3,0.7-4.9,1&#10;&#9;&#9;&#9;c-1.3,0.8-1.9,3.2-3.6,3.6c-2.2,0.5-5.6-1.3-7.7-1.9C54.8,287.7,54.6,287.3,54.3,286.9" style="fill-rule: evenodd; clip-rule: evenodd; fill: rgb(204, 204, 204); opacity: 1;"/>
		<path class="st4" d="M68.3,249.9c0.1-1.3,0.7-1.9,2.1-2c0.6,0.5,1,0.6,1.4,1.4c-0.1,0.6-0.1,1.1-0.2,1.7c-0.2,0.1-0.3,0.1-0.5,0.2&#10;&#9;&#9;&#9;h-1.5C68.9,250.7,68.8,250.4,68.3,249.9" style="fill-rule: evenodd; clip-rule: evenodd; fill: rgb(204, 204, 204); opacity: 1;"/>
		<path class="st4" d="M86.6,290.3c0.1-1,0.2-0.9,0.7-1.4c0.1-0.2,0.1-0.3,0.2-0.5c0.3,0.1,0.7,0.1,1,0.2c0.3,0.3,0.6,0.6,0.9,0.9&#10;&#9;&#9;&#9;c-0.1,0.3-0.1,0.7-0.2,1C88.5,292,87.4,291.3,86.6,290.3" style="fill-rule: evenodd; clip-rule: evenodd; fill: rgb(204, 204, 204); opacity: 1;"/>
		<path class="st4" d="M88.3,231.1c0.6-1.6,1.1-2.5,3.4-2.4c0.6,0.4,1,0.8,1.4,1.5c0.3,0.9,0.1,1.8-0.2,2.6&#10;&#9;&#9;&#9;c-0.7,0.4-1.4,0.8-2.1,1.2c-0.5-0.2-1-0.5-1.5-0.7C89,232.6,88.7,231.8,88.3,231.1" style="fill-rule: evenodd; clip-rule: evenodd; fill: rgb(204, 204, 204); opacity: 1;"/>
		<path class="st4" d="M91.7,302.8c0-3.1,1.5-4.2,3.4-5.3c0.9,0.2,1.7,0.3,2.6,0.5c2.3,1.6,2.9,4,1.9,6.8c-0.1,0.1-0.2,0.1-0.3,0.2&#10;&#9;&#9;&#9;C95.4,305.1,93.7,304.5,91.7,302.8" style="fill-rule: evenodd; clip-rule: evenodd; fill: rgb(204, 204, 204); opacity: 1;"/>
		<path class="st4" d="M97.4,219.1c0.2-1,0.5-1.2,1-1.9c1.2,0.1,1.2,0.4,1.9,0.9c0.1,0.8,0,1.3-0.2,2c-0.3,0.2-0.7,0.3-1,0.5&#10;&#9;&#9;&#9;c-0.5-0.2-0.9-0.5-1.4-0.7C97.6,219.7,97.5,219.4,97.4,219.1" style="fill-rule: evenodd; clip-rule: evenodd; fill: rgb(204, 204, 204); opacity: 1;"/>
		<path class="st4" d="M122.1,214.7c0.1-0.4,0.1-0.8,0.2-1.2c0.4-0.2,0.8-0.5,1.2-0.7c0.6,0.4,0.8,0.7,1.2,1.4&#10;&#9;&#9;&#9;c-0.2,1-0.7,1.5-1.7,1.7C122.7,215.5,122.4,215.1,122.1,214.7" style="fill-rule: evenodd; clip-rule: evenodd; fill: rgb(204, 204, 204); opacity: 1;"/>
		<path class="st4" d="M126.4,307.8c0.5-0.9,0.8-1.5,1.7-2.1c0.4,0.2,0.8,0.5,1.2,0.7v0.2v1.7c-0.6,0.5-0.8,1-1.5,1.4&#10;&#9;&#9;&#9;C127.3,309,126.8,308.4,126.4,307.8" style="fill-rule: evenodd; clip-rule: evenodd; fill: rgb(204, 204, 204); opacity: 1;"/>
		<path class="st4" d="M133.2,202.1c0.6,0.6,1.1,1.3,1.7,1.9c0.8-0.5,1-0.7,1-2.1c-0.4-0.5-0.8-0.9-1.2-1.4c-0.5,0.2-1,0.5-1.5,0.7&#10;&#9;&#9;&#9;V202.1z" style="fill-rule: evenodd; clip-rule: evenodd; fill: rgb(204, 204, 204); opacity: 1;"/>
		<path class="st4" d="M136.3,213.3c0.1,0.3,0.2,0.6,0.3,0.9c0.3-0.1,0.6-0.1,0.9-0.2c-0.1-0.5-0.1-0.9-0.2-1.4&#10;&#9;&#9;&#9;c-0.1-0.2-0.2-0.3-0.3-0.5c-0.2,0.1-0.3,0.1-0.5,0.2C136.4,212.7,136.4,213,136.3,213.3" style="fill-rule: evenodd; clip-rule: evenodd; fill: rgb(204, 204, 204); opacity: 1;"/>
		<path class="st4" d="M136.6,208.2c0.1-0.2,0.2-0.3,0.3-0.5C136.6,208,136.9,207.7,136.6,208.2" style="fill-rule: evenodd; clip-rule: evenodd; fill: rgb(204, 204, 204); opacity: 1;"/>
		<path class="st4" d="M140.2,211.3c0.1,0.1,0.2,0.1,0.3,0.2c0.1-0.1,0.2-0.2,0.3-0.3c-0.1-0.2-0.1-0.3-0.2-0.5h-0.2&#10;&#9;&#9;&#9;C140.5,210.8,140.3,211.1,140.2,211.3" style="fill-rule: evenodd; clip-rule: evenodd; fill: rgb(204, 204, 204); opacity: 1;"/>
		<path class="st4" d="M145.7,216.6h0.3C145.7,216.4,146,216.4,145.7,216.6" style="fill-rule: evenodd; clip-rule: evenodd; fill: rgb(204, 204, 204); opacity: 1;"/>
		<path class="st4" d="M146,217.6c0.5,0.5,0.7,0.8,1.5,1v-0.3c0.1-0.2,0.1-0.3,0.2-0.5c-0.5-0.3-1-0.7-1.5-1H146V217.6z" style="fill-rule: evenodd; clip-rule: evenodd; fill: rgb(204, 204, 204); opacity: 1;"/>
		<path class="st4" d="M179.5,221.5c0.1-1.7,1.4-1.9,2-0.7c-0.2,0.3-0.5,0.7-0.7,1C180.1,221.8,179.9,221.8,179.5,221.5" style="fill-rule: evenodd; clip-rule: evenodd; fill: rgb(204, 204, 204); opacity: 1;"/>
		<path class="st4" d="M182.7,275.1c0.4,0.1,0.8,0.2,1.2,0.3c0.2-0.3,0.5-0.6,0.7-0.9c-0.1-0.3-0.1-0.6-0.2-0.9&#10;&#9;&#9;&#9;c-0.3-0.1-0.7-0.1-1-0.2c-0.2,0.2-0.5,0.3-0.7,0.5V275.1z" style="fill-rule: evenodd; clip-rule: evenodd; fill: rgb(204, 204, 204); opacity: 1;"/>
		<path class="st4" d="M184.1,212.7c-0.4-9.6,12.3-6,9.6-0.3C191.6,217.8,186.7,217.2,184.1,212.7" style="fill-rule: evenodd; clip-rule: evenodd; fill: rgb(204, 204, 204); opacity: 1;"/>
		<path class="st4" d="M187.7,256.7c0.2-1.3,0.9-1.7,1.9-1.2v1.2c-0.5,0.1-0.9,0.2-1.4,0.3C188,256.9,187.9,256.8,187.7,256.7" style="fill-rule: evenodd; clip-rule: evenodd; fill: rgb(204, 204, 204); opacity: 1;"/>
	</g></svg>